<svg width="114" height="55" viewBox="0 0 114 55" fill="none" xmlns="http://www.w3.org/2000/svg">
<path d="M7.96122 42.0278C7.96122 41.7394 7.92262 41.4802 7.8446 41.2506C7.76678 41.0213 7.65677 40.8269 7.51331 40.6681C7.36986 40.5094 7.19585 40.387 6.99048 40.302C6.78592 40.2173 6.55433 40.1744 6.29735 40.1744H5.27418V43.8809H6.29735C6.55433 43.8809 6.78592 43.8386 6.99048 43.7533C7.19585 43.6683 7.36986 43.5465 7.51331 43.3878C7.65677 43.2284 7.76678 43.0346 7.8446 42.8053C7.92262 42.576 7.96122 42.3167 7.96122 42.0278V42.0278ZM8.9623 42.0278C8.9623 42.4135 8.89832 42.7682 8.76952 43.0908C8.64134 43.414 8.4599 43.6916 8.22687 43.9245C7.99404 44.1575 7.71353 44.3389 7.38596 44.4671C7.05818 44.5959 6.69551 44.6599 6.29735 44.6599H4.28754V39.3954H6.29735C6.69551 39.3954 7.05818 39.4609 7.38596 39.5905C7.71353 39.7201 7.99404 39.9013 8.22687 40.1329C8.4599 40.3645 8.64134 40.6419 8.76952 40.9646C8.89832 41.2872 8.9623 41.6418 8.9623 42.0278V42.0278Z" fill="#F8AF48"/>
<path d="M10.8335 44.6603H9.85059V39.3956H10.8335V44.6603Z" fill="#F8AF48"/>
<path d="M15.3374 39.3956V40.1746H13.0035V41.733H14.9733V42.5157H13.0035V44.6603H12.0168V39.3956H15.3374Z" fill="#F8AF48"/>
<path d="M19.7249 43.4185C19.7781 43.4185 19.8239 43.4389 19.8632 43.4804L20.2492 43.8992C20.0351 44.1634 19.7721 44.3665 19.4605 44.5071C19.149 44.6477 18.7746 44.7182 18.3378 44.7182C17.9467 44.7182 17.5958 44.6514 17.2833 44.518C16.9718 44.3849 16.7051 44.1991 16.4844 43.9609C16.264 43.7229 16.0943 43.4389 15.9771 43.1091C15.8584 42.7792 15.8 42.4188 15.8 42.0277C15.8 41.6324 15.8656 41.2698 15.9967 40.9414C16.1278 40.6121 16.3119 40.329 16.5501 40.0908C16.7875 39.8534 17.0721 39.6678 17.4036 39.5353C17.7349 39.4034 18.1011 39.3372 18.5015 39.3372C18.8918 39.3372 19.234 39.3997 19.5269 39.5244C19.8188 39.6496 20.0694 39.8156 20.2783 40.0216L19.9507 40.4767C19.9309 40.5058 19.9061 40.5314 19.8764 40.5531C19.8458 40.575 19.8035 40.5859 19.7505 40.5859C19.6943 40.5859 19.6376 40.5641 19.5794 40.5205C19.5209 40.4767 19.4466 40.4295 19.3573 40.3785C19.2677 40.3275 19.1539 40.2802 19.0165 40.2365C18.8794 40.1927 18.7054 40.1708 18.4943 40.1708C18.2468 40.1708 18.0187 40.214 17.8112 40.3005C17.6038 40.3865 17.4253 40.5096 17.276 40.6697C17.1268 40.8299 17.0104 41.0243 16.9266 41.2537C16.8428 41.4838 16.8013 41.7416 16.8013 42.0277C16.8013 42.3241 16.8428 42.5871 16.9266 42.8178C17.0104 43.0486 17.1239 43.2424 17.2674 43.4003C17.41 43.5584 17.579 43.6786 17.7735 43.763C17.9671 43.846 18.176 43.8883 18.3997 43.8883C18.5329 43.8883 18.6538 43.8808 18.7616 43.8664C18.8699 43.8517 18.969 43.8284 19.06 43.7973C19.151 43.7659 19.2377 43.725 19.3187 43.6757C19.4002 43.6253 19.4809 43.5642 19.561 43.4914C19.5851 43.4695 19.6105 43.4521 19.6376 43.4383C19.6644 43.4251 19.6935 43.4185 19.7249 43.4185V43.4185Z" fill="#F8AF48"/>
<path d="M23.4056 41.9004H24.0172C24.2013 41.9004 24.3617 41.8771 24.4992 41.8313C24.6362 41.7852 24.7498 41.7213 24.8379 41.6403C24.9267 41.5588 24.9929 41.462 25.0358 41.3505C25.0802 41.2393 25.1021 41.1161 25.1021 40.9829C25.1021 40.7164 25.014 40.5111 24.8379 40.3676C24.6625 40.2242 24.3929 40.1527 24.031 40.1527H23.4056V41.9004ZM23.4056 42.603V44.6601H22.4262V39.3954H24.031C24.3908 39.3954 24.698 39.4326 24.9543 39.5063C25.2107 39.5804 25.421 39.6846 25.5843 39.8177C25.748 39.9511 25.8683 40.1106 25.9447 40.2962C26.021 40.4826 26.0596 40.6865 26.0596 40.91C26.0596 41.0869 26.0328 41.2546 25.981 41.4125C25.9294 41.5706 25.8536 41.7132 25.756 41.8422C25.6569 41.971 25.5362 42.0839 25.3919 42.1807C25.2464 42.2783 25.0825 42.3555 24.8984 42.4138C25.022 42.4843 25.1283 42.5849 25.2179 42.7159L26.5367 44.6601H25.6555C25.5705 44.6601 25.4982 44.6434 25.4386 44.6091C25.3789 44.5749 25.3294 44.527 25.2879 44.4636L24.1803 42.7779C24.1396 42.7145 24.0936 42.6701 24.0441 42.6431C23.9947 42.6162 23.921 42.603 23.8236 42.603H23.4056V42.603Z" fill="#F8AF48"/>
<path d="M30.4831 39.3956V40.1746H28.1492V41.6348H29.9871V42.3883H28.1492V43.8774H30.4831V44.6603H27.162V39.3956H30.4831Z" fill="#F8AF48"/>
<path d="M32.3433 42.0422H33.0788C33.2587 42.0422 33.4152 42.0197 33.5485 41.9753C33.6817 41.9301 33.7925 41.8659 33.8798 41.7824C33.9665 41.6985 34.0328 41.5966 34.0763 41.4764C34.1195 41.3563 34.142 41.2224 34.142 41.0737C34.142 40.9332 34.1195 40.8058 34.0763 40.6915C34.0328 40.5779 33.9665 40.4803 33.8798 40.4002C33.7925 40.3201 33.6817 40.259 33.5485 40.2167C33.4152 40.1744 33.2587 40.1527 33.0788 40.1527H32.3433V42.0422ZM32.3433 42.8068V44.6599H31.3633V39.3954H33.0788C33.4305 39.3954 33.7349 39.4369 33.9927 39.5191C34.2497 39.6014 34.4623 39.7172 34.6299 39.865C34.7973 40.0128 34.9212 40.1905 35.0004 40.3965C35.0813 40.6027 35.1206 40.8283 35.1206 41.0737C35.1206 41.3287 35.0791 41.5623 34.9938 41.7749C34.9088 41.9869 34.782 42.1696 34.6116 42.3225C34.4419 42.4755 34.2293 42.595 33.9746 42.6794C33.7197 42.7647 33.4204 42.8068 33.0788 42.8068H32.3433V42.8068Z" fill="#F8AF48"/>
<path d="M36.8944 41.9004H37.506C37.6903 41.9004 37.8511 41.8771 37.9882 41.8313C38.125 41.7852 38.2385 41.7213 38.3275 41.6403C38.4154 41.5588 38.4817 41.462 38.5254 41.3505C38.5692 41.2393 38.5911 41.1161 38.5911 40.9829C38.5911 40.7164 38.503 40.5111 38.3275 40.3676C38.1512 40.2242 37.8819 40.1527 37.5206 40.1527H36.8944V41.9004V41.9004ZM36.8944 42.603V44.6601H35.915V39.3954H37.5206C37.8804 39.3954 38.1869 39.4326 38.4431 39.5063C38.6994 39.5804 38.91 39.6846 39.073 39.8177C39.2376 39.9511 39.3577 40.1106 39.4334 40.2962C39.5106 40.4826 39.5486 40.6865 39.5486 40.91C39.5486 41.0869 39.5224 41.2546 39.47 41.4125C39.4182 41.5706 39.3424 41.7132 39.245 41.8422C39.1465 41.971 39.025 42.0839 38.8809 42.1807C38.736 42.2783 38.5713 42.3555 38.3871 42.4138C38.511 42.4843 38.6173 42.5849 38.7075 42.7159L40.0254 44.6601H39.1445C39.06 44.6601 38.9872 44.6434 38.9273 44.6091C38.8685 44.5749 38.8181 44.527 38.7766 44.4636L37.669 42.7779C37.6284 42.7145 37.5826 42.6701 37.533 42.6431C37.4835 42.6162 37.41 42.603 37.313 42.603H36.8944V42.603Z" fill="#F8AF48"/>
<path d="M43.9721 39.3956V40.1746H41.6382V41.6348H43.477V42.3883H41.6382V43.8774H43.9721V44.6603H40.6516V39.3956H43.9721Z" fill="#F8AF48"/>
<path d="M47.642 40.3529C47.6149 40.4062 47.5837 40.4439 47.5487 40.4658C47.5129 40.4877 47.4723 40.4986 47.4228 40.4986C47.3747 40.4986 47.3202 40.4796 47.2597 40.4425C47.1992 40.4047 47.1272 40.3624 47.0448 40.3166C46.9618 40.2707 46.8656 40.2284 46.755 40.1907C46.6444 40.1535 46.5139 40.1345 46.3632 40.1345C46.2278 40.1345 46.1098 40.1512 46.0086 40.184C45.9081 40.2169 45.8229 40.2619 45.7537 40.3203C45.6846 40.3785 45.633 40.4483 45.5987 40.53C45.5644 40.6107 45.5483 40.7003 45.5483 40.7971C45.5483 40.9209 45.5826 41.0243 45.6517 41.1067C45.7211 41.1888 45.8128 41.2595 45.9271 41.3179C46.0406 41.3761 46.1702 41.4285 46.3166 41.4743C46.4623 41.521 46.6109 41.5697 46.7622 41.6221C46.9137 41.6739 47.0624 41.7344 47.2079 41.8042C47.3536 41.8727 47.4838 41.9608 47.5976 42.0663C47.7119 42.172 47.8036 42.3008 47.8727 42.4537C47.9419 42.6067 47.977 42.7922 47.977 43.0108C47.977 43.2488 47.9355 43.4718 47.8546 43.6786C47.7736 43.8868 47.6543 44.0674 47.4977 44.221C47.3412 44.3754 47.1497 44.497 46.9247 44.5851C46.6983 44.6739 46.4404 44.7182 46.1484 44.7182C45.9818 44.7182 45.8165 44.7024 45.654 44.6695C45.491 44.6361 45.3351 44.5894 45.1859 44.529C45.0364 44.4685 44.8967 44.3958 44.7671 44.3106C44.6375 44.2253 44.5217 44.1306 44.4191 44.0266L44.7037 43.557C44.7299 43.5233 44.7619 43.4942 44.7999 43.4717C44.8371 43.4484 44.8792 43.4366 44.9258 43.4366C44.9863 43.4366 45.0511 43.4614 45.1217 43.511C45.1923 43.5613 45.2755 43.6166 45.3715 43.6771C45.4676 43.7374 45.5805 43.7929 45.7102 43.8423C45.8398 43.8926 45.9956 43.9174 46.1775 43.9174C46.4572 43.9174 46.6735 43.8511 46.8264 43.7192C46.9794 43.5867 47.0549 43.3966 47.0549 43.1491C47.0549 43.0108 47.0209 42.8979 46.9517 42.8106C46.8824 42.7231 46.7907 42.6496 46.6772 42.5906C46.5628 42.5309 46.4332 42.4808 46.2875 42.4391C46.1412 42.3984 45.9933 42.3532 45.8427 42.3045C45.6926 42.2556 45.544 42.1974 45.3991 42.1297C45.2536 42.062 45.1231 41.9732 45.0096 41.8638C44.8953 41.7546 44.8036 41.6178 44.7343 41.4547C44.6651 41.2908 44.6302 41.0883 44.6302 40.8481C44.6302 40.6565 44.6688 40.4695 44.7452 40.2875C44.8218 40.1054 44.9332 39.9438 45.0802 39.8032C45.2274 39.6627 45.408 39.5498 45.6212 39.4645C45.8346 39.3801 46.0786 39.3372 46.3523 39.3372C46.6634 39.3372 46.9501 39.3859 47.2116 39.4829C47.4743 39.5797 47.6973 39.7159 47.8814 39.8905L47.642 40.3529V40.3529Z" fill="#F8AF48"/>
<path d="M52.0472 39.3956V40.1746H49.7135V41.6348H51.552V42.3883H49.7135V43.8774H52.0472V44.6603H48.7269V39.3956H52.0472Z" fill="#F8AF48"/>
<path d="M53.5185 39.4008C53.5476 39.4045 53.5738 39.4117 53.5965 39.4226C53.6205 39.4336 53.6424 39.4497 53.6643 39.4701C53.6859 39.4912 53.7107 39.518 53.7369 39.5523L56.5003 43.0722C56.4908 42.9877 56.4836 42.9048 56.4801 42.8232C56.4764 42.7417 56.4749 42.666 56.4749 42.596V39.3958H57.3377V44.6605H56.8316C56.7538 44.6605 56.6898 44.6481 56.6388 44.624C56.5878 44.5992 56.5375 44.5563 56.4894 44.4929L53.7369 40.9868C53.7443 41.064 53.7493 41.1412 53.753 41.2176C53.7567 41.2942 53.7588 41.3639 53.7588 41.4273V44.6605H52.8966V39.3958H53.4093C53.4531 39.3958 53.4894 39.3973 53.5185 39.4008V39.4008Z" fill="#F8AF48"/>
<path d="M62.1107 39.3956V40.2002H60.5269V44.6603H59.5469V40.2002H57.9565V39.3956H62.1107Z" fill="#F8AF48"/>
<path d="M63.4176 42.6724H65.0961L64.4554 40.921C64.4261 40.8432 64.3941 40.7513 64.3584 40.6458C64.3235 40.5402 64.2886 40.4258 64.2544 40.3022C64.2209 40.4258 64.1881 40.541 64.1553 40.6479C64.1219 40.755 64.0899 40.8483 64.0585 40.9284L63.4176 42.6724V42.6724ZM66.8254 44.6603H66.0683C65.9831 44.6603 65.9131 44.639 65.8592 44.5969C65.8039 44.5538 65.7647 44.5014 65.7399 44.4382L65.3467 43.3641H63.1658L62.7725 44.4382C62.7536 44.4935 62.715 44.5451 62.6582 44.5909C62.6015 44.637 62.5315 44.6603 62.4493 44.6603H61.6883L63.7563 39.3956H64.7576L66.8254 44.6603Z" fill="#F8AF48"/>
<path d="M70.5429 39.3956V40.2002H68.9592V44.6603H67.9791V40.2002H66.3887V39.3956H70.5429Z" fill="#F8AF48"/>
<path d="M72.2692 44.6603H71.2855V39.3956H72.2692V44.6603Z" fill="#F8AF48"/>
<path d="M72.9344 39.3956H73.7252C73.8096 39.3956 73.879 39.4159 73.932 39.4576C73.9853 39.499 74.026 39.5521 74.0522 39.6177L75.29 42.8288C75.3317 42.9331 75.3717 43.048 75.4087 43.1725C75.4458 43.2978 75.4824 43.4297 75.5166 43.568C75.5719 43.2891 75.6411 43.0423 75.7233 42.8288L76.9576 39.6177C76.9801 39.5624 77.0181 39.5106 77.0748 39.4648C77.1301 39.4189 77.1993 39.3956 77.2823 39.3956H78.0724L75.9462 44.6603H75.0615L72.9344 39.3956V39.3956Z" fill="#F8AF48"/>
<path d="M81.942 39.3956V40.1746H79.6083V41.6348H81.4468V42.3883H79.6083V43.8774H81.942V44.6603H78.6215V39.3956H81.942Z" fill="#F8AF48"/>
<path d="M8.33274 49.3092C8.33274 49.0209 8.29415 48.7616 8.21757 48.5323C8.1412 48.303 8.03117 48.1077 7.88854 47.9475C7.74509 47.7874 7.5711 47.6652 7.36572 47.5799C7.16096 47.4955 6.92957 47.4524 6.67238 47.4524C6.4154 47.4524 6.18319 47.4955 5.97699 47.5799C5.77017 47.6652 5.59554 47.7874 5.45064 47.9475C5.30636 48.1077 5.1949 48.303 5.11771 48.5323C5.03989 48.7616 5.00129 49.0209 5.00129 49.3092C5.00129 49.5984 5.03989 49.8577 5.11771 50.087C5.1949 50.3163 5.30636 50.5101 5.45064 50.6695C5.59554 50.8282 5.77017 50.9498 5.97699 51.035C6.18319 51.1203 6.4154 51.1626 6.67238 51.1626C6.92957 51.1626 7.16096 51.1203 7.36572 51.035C7.5711 50.9498 7.74509 50.8282 7.88854 50.6695C8.03117 50.5101 8.1412 50.3163 8.21757 50.087C8.29415 49.8577 8.33274 49.5984 8.33274 49.3092ZM9.33755 49.3092C9.33755 49.6952 9.27356 50.0527 9.14455 50.382C9.01575 50.7103 8.83515 50.995 8.60211 51.2352C8.36907 51.4755 8.08877 51.6635 7.76099 51.7981C7.43342 51.9329 7.07075 51.9998 6.67238 51.9998C6.27422 51.9998 5.91073 51.9329 5.58172 51.7981C5.25332 51.6635 4.97136 51.4755 4.7377 51.2352C4.50322 50.995 4.322 50.7103 4.193 50.382C4.0642 50.0527 4 49.6952 4 49.3092C4 48.9234 4.0642 48.5657 4.193 48.2373C4.322 47.9083 4.50322 47.6237 4.7377 47.3832C4.97136 47.143 5.25332 46.956 5.58172 46.8212C5.91073 46.6864 6.27422 46.6187 6.67238 46.6187C7.07075 46.6187 7.43342 46.6864 7.76099 46.8226C8.08877 46.9588 8.36907 47.1459 8.60211 47.3855C8.83515 47.6243 9.01575 47.9083 9.14455 48.2373C9.27356 48.5657 9.33755 48.9234 9.33755 49.3092V49.3092Z" fill="#F8AF48"/>
<path d="M13.4298 46.6771V47.4563H11.0961V49.0147H13.0657V49.7974H11.0961V51.9418H10.1093V46.6771H13.4298Z" fill="#F8AF48"/>
<path d="M17.5184 46.6771V47.4563H15.1845V49.0147H17.1543V49.7974H15.1845V51.9418H14.1979V46.6771H17.5184Z" fill="#F8AF48"/>
<path d="M19.3897 51.942H18.4066V46.6773H19.3897V51.942Z" fill="#F8AF48"/>
<path d="M24.192 50.7002C24.245 50.7002 24.291 50.7207 24.3296 50.7622L24.7162 51.1808C24.5022 51.4452 24.2392 51.6483 23.9276 51.7889C23.6159 51.9294 23.241 52 22.8049 52C22.4137 52 22.0629 51.9331 21.7503 51.7998C21.4387 51.6664 21.1722 51.4809 20.9515 51.2427C20.7309 51.0047 20.5612 50.7207 20.444 50.3908C20.3253 50.061 20.2671 49.7004 20.2671 49.3095C20.2671 48.914 20.3327 48.5515 20.4638 48.2231C20.5949 47.8939 20.779 47.6107 21.0172 47.3725C21.2546 47.1351 21.5392 46.9494 21.8705 46.8168C22.202 46.6852 22.5681 46.6189 22.968 46.6189C23.3589 46.6189 23.7005 46.6814 23.9938 46.8061C24.2859 46.9312 24.5365 47.0974 24.7454 47.3034L24.4178 47.7585C24.398 47.7876 24.3732 47.813 24.3426 47.8349C24.3121 47.8567 24.2698 47.8677 24.2167 47.8677C24.1614 47.8677 24.1047 47.8458 24.0462 47.8022C23.988 47.7585 23.9137 47.7112 23.8235 47.6602C23.7339 47.6093 23.621 47.5618 23.4834 47.5182C23.3465 47.4745 23.1725 47.4526 22.9614 47.4526C22.7139 47.4526 22.4858 47.4955 22.2783 47.5822C22.0709 47.6681 21.8924 47.7913 21.7431 47.9515C21.5939 48.1117 21.4773 48.3061 21.3937 48.5354C21.3099 48.7656 21.2684 49.0234 21.2684 49.3095C21.2684 49.6059 21.3099 49.8686 21.3937 50.0996C21.4773 50.3303 21.591 50.524 21.7345 50.6821C21.8771 50.84 22.0461 50.9601 22.2404 51.0447C22.4342 51.1277 22.6431 51.1698 22.8666 51.1698C23 51.1698 23.1201 51.1626 23.2287 51.1482C23.3364 51.1335 23.4361 51.1102 23.5271 51.079C23.6181 51.0476 23.704 51.0068 23.7855 50.9572C23.8673 50.9071 23.948 50.846 24.0275 50.7731C24.0522 50.7512 24.0776 50.7337 24.1047 50.7199C24.1309 50.7069 24.16 50.7002 24.192 50.7002V50.7002Z" fill="#F8AF48"/>
<path d="M28.7757 46.6771V47.4563H26.4418V48.9163H28.2799V49.6701H26.4418V51.1591H28.7757V51.9418H25.4545V46.6771H28.7757Z" fill="#F8AF48"/>
<path d="M52.6169 22.2093V24.3064H53.9196C54.1518 24.3064 54.3514 24.2794 54.5188 24.2264C54.6849 24.1731 54.8224 24.0982 54.9302 24.002C55.0379 23.9052 55.1174 23.7902 55.1675 23.6569C55.2179 23.5235 55.2433 23.3772 55.2433 23.2178C55.2433 22.9068 55.1335 22.6607 54.9134 22.4801C54.6936 22.2995 54.3609 22.2093 53.9152 22.2093H52.6169V22.2093ZM52.6169 21.6297H53.6923C53.9224 21.6297 54.1212 21.6041 54.2895 21.554C54.4577 21.503 54.5968 21.433 54.7074 21.3434C54.8181 21.2539 54.9004 21.1455 54.9535 21.0179C55.0067 20.8906 55.0329 20.7514 55.0329 20.5999C55.0329 20.2468 54.9266 19.9875 54.714 19.8224C54.5006 19.6571 54.1699 19.5747 53.7222 19.5747H52.6169V21.6297V21.6297ZM51.8014 24.9537V18.9317H53.7222C54.0921 18.9317 54.4104 18.9683 54.6783 19.0409C54.9454 19.1138 55.1655 19.2172 55.338 19.352C55.5097 19.4859 55.6373 19.6513 55.7203 19.8457C55.8026 20.04 55.8441 20.2592 55.8441 20.5031C55.8441 20.6518 55.8208 20.7944 55.775 20.9321C55.729 21.0689 55.6584 21.1965 55.5653 21.3143C55.4705 21.4316 55.3533 21.5372 55.2121 21.6297C55.0701 21.7222 54.9039 21.798 54.714 21.8562C55.1537 21.9435 55.4858 22.1016 55.7102 22.3315C55.9337 22.561 56.0458 22.8632 56.0458 23.2389C56.0458 23.4938 55.9991 23.7269 55.9052 23.9366C55.8113 24.1469 55.6745 24.3275 55.493 24.4782C55.3124 24.6297 55.0911 24.7469 54.829 24.8293C54.5677 24.9123 54.2684 24.9537 53.9319 24.9537H51.8014V24.9537Z" fill="white"/>
<path d="M58.2479 22.7179H60.4957L59.5506 20.2676C59.4887 20.1168 59.429 19.9275 59.37 19.7002C59.3388 19.8154 59.3089 19.9209 59.2798 20.0179C59.2498 20.1147 59.2216 20.1991 59.1931 20.272L58.2479 22.7179V22.7179ZM62.1939 24.9533H61.5633C61.4904 24.9533 61.4314 24.9352 61.387 24.8986C61.342 24.8623 61.3084 24.8165 61.2859 24.7604L60.723 23.3062H58.0207L57.4578 24.7604C57.4382 24.8105 57.4048 24.8551 57.3567 24.8943C57.3094 24.9337 57.2504 24.9533 57.1804 24.9533H56.5498L58.958 18.9313H59.7859L62.1939 24.9533Z" fill="white"/>
<path d="M63.5367 18.9588C63.5715 18.9769 63.6116 19.0141 63.6559 19.07L67.1439 23.6088C67.1358 23.5359 67.13 23.4653 67.1272 23.3962C67.1243 23.3276 67.1234 23.2614 67.1234 23.1966V18.9311H67.8378V24.9529H67.4256C67.3608 24.9529 67.3078 24.942 67.264 24.9195C67.2204 24.897 67.1781 24.8598 67.1358 24.806L63.6522 20.2724C63.6574 20.3421 63.6617 20.4107 63.6646 20.4777C63.6677 20.5454 63.6692 20.6065 63.6692 20.6627V24.9529H62.9548V18.9311H63.3748C63.4477 18.9311 63.5016 18.9406 63.5367 18.9588V18.9588Z" fill="white"/>
<path d="M70.2034 21.5707H70.5099C70.6162 21.5707 70.7015 21.5575 70.764 21.5304C70.8274 21.5042 70.887 21.4584 70.9432 21.3936L72.9478 19.1247C73.0089 19.0548 73.0688 19.0052 73.1262 18.9755C73.1838 18.9462 73.2566 18.9317 73.3468 18.9317H74.0402L71.7457 21.524C71.6867 21.5889 71.6314 21.6433 71.5795 21.6886C71.5279 21.7329 71.4726 21.7695 71.4136 21.7977C71.4922 21.8225 71.5608 21.8605 71.6196 21.9106C71.6786 21.9616 71.7397 22.0242 71.8045 22.0999L74.1995 24.9537H73.494C73.4407 24.9537 73.3957 24.9492 73.3592 24.9405C73.3229 24.9325 73.2915 24.9209 73.2647 24.9071C73.2385 24.8933 73.2137 24.8751 73.191 24.8524C73.1685 24.8299 73.1466 24.8058 73.1241 24.781L71.0437 22.3897C71.0132 22.3563 70.9841 22.3278 70.9578 22.3038C70.9308 22.2799 70.9002 22.2595 70.8654 22.2428C70.8303 22.226 70.7896 22.2143 70.743 22.2071C70.6971 22.2004 70.6402 22.1967 70.5733 22.1967H70.2034V24.9537H69.3922V18.9317H70.2034V21.5707V21.5707Z" fill="white"/>
<path d="M79.7382 19.8728C79.7126 19.9151 79.6864 19.9465 79.6581 19.9675C79.6305 19.9886 79.5939 19.9989 79.5489 19.9989C79.5015 19.9989 79.4462 19.9747 79.3828 19.9275C79.3202 19.8794 79.2401 19.827 79.1433 19.7702C79.0472 19.7126 78.9307 19.6596 78.7945 19.6123C78.6591 19.5648 78.4944 19.5409 78.3008 19.5409C78.1187 19.5409 77.9579 19.5656 77.818 19.6144C77.6774 19.6631 77.561 19.7302 77.4671 19.814C77.3732 19.8984 77.3026 19.9966 77.2545 20.1104C77.207 20.2239 77.1831 20.3463 77.1831 20.478C77.1831 20.6462 77.2246 20.7853 77.3069 20.896C77.3899 21.0066 77.4991 21.1013 77.6353 21.18C77.7707 21.2586 77.9251 21.3263 78.0969 21.3831C78.2694 21.4413 78.4457 21.5003 78.6271 21.5622C78.8075 21.6242 78.9838 21.6933 79.1563 21.7705C79.3283 21.8477 79.4827 21.9445 79.6187 22.0618C79.7543 22.1796 79.8635 22.3239 79.9465 22.495C80.0288 22.6661 80.0703 22.8758 80.0703 23.1256C80.0703 23.3886 80.0251 23.6361 79.9355 23.8668C79.846 24.0984 79.7149 24.2995 79.543 24.4706C79.3704 24.6409 79.1592 24.7756 78.908 24.8733C78.6577 24.9715 78.3722 25.0211 78.0533 25.0211C77.6636 25.0211 77.3084 24.9496 76.988 24.8084C76.6668 24.6671 76.3929 24.4757 76.1665 24.2346L76.4018 23.848C76.4243 23.8173 76.4513 23.7919 76.4833 23.77C76.5162 23.7496 76.5517 23.7386 76.5903 23.7386C76.6493 23.7386 76.717 23.77 76.7921 23.8334C76.8677 23.8967 76.9624 23.9659 77.076 24.0416C77.1897 24.1174 77.3265 24.1865 77.4882 24.2499C77.6492 24.3125 77.8457 24.3438 78.0781 24.3438C78.2717 24.3438 78.4442 24.3176 78.5949 24.2646C78.7464 24.2113 78.8746 24.1364 78.9795 24.0394C79.0851 23.9426 79.1652 23.8268 79.2212 23.6928C79.2773 23.5582 79.3056 23.4082 79.3056 23.2428C79.3056 23.0608 79.2641 22.9115 79.1811 22.7957C79.099 22.6793 78.9904 22.5817 78.8556 22.5037C78.7217 22.425 78.5681 22.3582 78.3955 22.3043C78.223 22.249 78.0467 22.1928 77.8661 22.1361C77.6855 22.0785 77.5086 22.0116 77.3366 21.9365C77.1641 21.8607 77.0111 21.7625 76.8766 21.6415C76.7418 21.5214 76.6332 21.3707 76.551 21.1901C76.4681 21.0095 76.4266 20.7859 76.4266 20.5203C76.4266 20.3069 76.4681 20.1015 76.551 19.9021C76.6332 19.7033 76.7535 19.527 76.91 19.3727C77.0667 19.2191 77.2609 19.0952 77.4919 19.0028C77.7235 18.9103 77.9885 18.8645 78.2884 18.8645C78.6248 18.8645 78.9314 18.9175 79.2088 19.0238C79.4862 19.1309 79.7287 19.2845 79.9355 19.4862L79.7382 19.8728V19.8728Z" fill="white"/>
<path d="M83.4279 22.558V24.9537H82.6167V22.558L80.4103 18.9317H81.1247C81.1976 18.9317 81.255 18.9499 81.2973 18.9862C81.3396 19.0228 81.3759 19.0671 81.4065 19.1204L82.7849 21.4613C82.841 21.5598 82.8877 21.6522 82.9255 21.7387C82.9632 21.8254 82.9975 21.9115 83.0289 21.9951C83.0594 21.9084 83.0928 21.8211 83.1294 21.7344C83.1657 21.6477 83.2124 21.5567 83.2685 21.4613L84.6426 19.1204C84.6671 19.0758 84.7022 19.0329 84.7452 18.9922C84.7889 18.9522 84.8457 18.9317 84.9155 18.9317H85.6387L83.4279 22.558V22.558Z" fill="white"/>
<path d="M86.7142 22.7179H88.962L88.0169 20.2676C87.955 20.1168 87.8953 19.9275 87.8363 19.7002C87.8049 19.8154 87.7752 19.9209 87.7461 20.0179C87.7162 20.1147 87.6877 20.1991 87.6594 20.272L86.7142 22.7179V22.7179ZM90.6602 24.9533H90.0296C89.9567 24.9533 89.8977 24.9352 89.8533 24.8986C89.8081 24.8623 89.7747 24.8165 89.7522 24.7604L89.1893 23.3062H86.487L85.9241 24.7604C85.9045 24.8105 85.8711 24.8551 85.823 24.8943C85.7755 24.9337 85.7167 24.9533 85.6467 24.9533H85.0161L87.4241 18.9313H88.252L90.6602 24.9533Z" fill="white"/>
<path d="M92.3158 21.8479H93.1685C93.4065 21.8479 93.6162 21.8194 93.7968 21.762C93.9774 21.7044 94.1289 21.6229 94.2513 21.518C94.3729 21.4132 94.4646 21.2879 94.5265 21.1415C94.5878 20.9958 94.6183 20.835 94.6183 20.6587C94.6183 20.3004 94.5003 20.0296 94.2637 19.8475C94.027 19.6655 93.6746 19.5745 93.2063 19.5745H92.3158V21.8479V21.8479ZM92.3158 22.4405V24.9535H91.5046V18.9315H93.2063C93.5879 18.9315 93.917 18.9701 94.1946 19.0473C94.472 19.1245 94.7005 19.2351 94.8811 19.3809C95.0617 19.5272 95.1957 19.7026 95.2824 19.9086C95.3691 20.1148 95.4128 20.345 95.4128 20.5997C95.4128 20.8123 95.3792 21.0119 95.3123 21.1968C95.2446 21.3818 95.1476 21.5471 95.0202 21.6949C94.892 21.8412 94.737 21.9672 94.5535 22.0706C94.37 22.174 94.1618 22.2526 93.9293 22.3059C94.0307 22.3649 94.1203 22.45 94.1981 22.5622L95.9552 24.9535H95.2322C95.0836 24.9535 94.9744 24.8959 94.9044 24.7809L93.3411 22.6291C93.2938 22.5622 93.2414 22.5141 93.1861 22.4842C93.1291 22.4551 93.0455 22.4405 92.9332 22.4405H92.3158V22.4405Z" fill="white"/>
<path d="M97.8002 24.9531H96.9853V18.9313H97.8002V24.9531Z" fill="white"/>
<path d="M100.422 22.7179H102.67L101.725 20.2676C101.663 20.1168 101.603 19.9275 101.544 19.7002C101.513 19.8154 101.483 19.9209 101.454 20.0179C101.424 20.1147 101.396 20.1991 101.367 20.272L100.422 22.7179V22.7179ZM104.368 24.9533H103.737C103.665 24.9533 103.606 24.9352 103.561 24.8986C103.516 24.8623 103.483 24.8165 103.46 24.7604L102.897 23.3062H100.195L99.6321 24.7604C99.6125 24.8105 99.5789 24.8551 99.531 24.8943C99.4835 24.9337 99.4245 24.9533 99.3547 24.9533H98.7241L101.132 18.9313H101.96L104.368 24.9533Z" fill="white"/>
<path d="M110.012 24.9533H109.192V22.2132H105.948V24.9533H105.128V18.9313H105.948V21.6169H109.192V18.9313H110.012V24.9533Z" fill="white"/>
<path d="M52.768 32.8852H51.9533V26.8632H52.768V32.8852Z" fill="white"/>
<path d="M54.9638 26.8907C54.9987 26.9089 55.0387 26.946 55.0833 27.0022L58.5712 31.5409C58.5631 31.4681 58.5574 31.3975 58.5543 31.3281C58.5514 31.2598 58.5508 31.1935 58.5508 31.1287V26.863H59.2651V32.885H58.8529C58.7881 32.885 58.7349 32.8741 58.6913 32.8516C58.6476 32.8289 58.6053 32.7917 58.5631 32.7379L55.0796 28.2043C55.0847 28.2743 55.0891 28.3428 55.092 28.4097C55.0948 28.4774 55.0963 28.5387 55.0963 28.5946V32.885H54.3819V26.863H54.8022C54.875 26.863 54.9289 26.8725 54.9638 26.8907V26.8907Z" fill="white"/>
<path d="M65.1187 29.8764C65.1187 29.5065 65.0684 29.1758 64.9672 28.8846C64.8667 28.5933 64.7233 28.3465 64.5391 28.1456C64.3542 27.9432 64.1298 27.7894 63.8663 27.6831C63.6027 27.5762 63.31 27.5229 62.988 27.5229H61.5551V32.2255H62.988C63.31 32.2255 63.6027 32.1723 63.8663 32.066C64.1298 31.9597 64.3542 31.8061 64.5391 31.6059C64.7233 31.4055 64.8667 31.1594 64.9672 30.8682C65.0684 30.5769 65.1187 30.2463 65.1187 29.8764V29.8764ZM65.9547 29.8764C65.9547 30.3278 65.8833 30.7377 65.7404 31.1078C65.5978 31.4777 65.3962 31.7943 65.1355 32.0573C64.8748 32.3209 64.5623 32.5248 64.1984 32.6689C63.8343 32.8132 63.4307 32.8852 62.988 32.8852H60.7358V26.8632H62.988C63.4307 26.8632 63.8343 26.9352 64.1984 27.0795C64.5623 27.2244 64.8748 27.4284 65.1355 27.6934C65.3962 27.9584 65.5978 28.2753 65.7404 28.6452C65.8833 29.015 65.9547 29.4256 65.9547 29.8764V29.8764Z" fill="white"/>
<path d="M71.8212 29.8764C71.8212 29.5065 71.7708 29.1744 71.6697 28.8803C71.5692 28.5868 71.4257 28.3378 71.2416 28.1347C71.0567 27.9314 70.8323 27.7756 70.5687 27.6658C70.3051 27.5572 70.011 27.5027 69.6861 27.5027C69.3643 27.5027 69.0716 27.5572 68.8081 27.6658C68.5445 27.7756 68.3201 27.9314 68.1337 28.1347C67.9473 28.3378 67.8039 28.5868 67.7027 28.8803C67.6022 29.1744 67.5518 29.5065 67.5518 29.8764C67.5518 30.2463 67.6022 30.5776 67.7027 30.8705C67.8039 31.1632 67.9473 31.4115 68.1337 31.6137C68.3201 31.8171 68.5445 31.9729 68.8081 32.0806C69.0716 32.1884 69.3643 32.2423 69.6861 32.2423C70.011 32.2423 70.3051 32.1884 70.5687 32.0806C70.8323 31.9729 71.0567 31.8171 71.2416 31.6137C71.4257 31.4115 71.5692 31.1632 71.6697 30.8705C71.7708 30.5776 71.8212 30.2463 71.8212 29.8764ZM72.6572 29.8764C72.6572 30.3278 72.5858 30.7415 72.4431 31.118C72.3003 31.4951 72.0986 31.8191 71.8379 32.0908C71.5772 32.363 71.2641 32.5736 70.8986 32.7236C70.533 32.8735 70.1289 32.9486 69.6861 32.9486C69.2434 32.9486 68.84 32.8735 68.4759 32.7236C68.1118 32.5736 67.7995 32.363 67.5388 32.0908C67.2781 31.8191 67.0765 31.4951 66.9337 31.118C66.791 30.7415 66.7196 30.3278 66.7196 29.8764C66.7196 29.4256 66.791 29.0113 66.9337 28.6349C67.0765 28.2577 67.2781 27.9328 67.5388 27.66C67.7995 27.3869 68.1118 27.1743 68.4759 27.0234C68.84 26.8719 69.2434 26.7964 69.6861 26.7964C70.1289 26.7964 70.533 26.8719 70.8986 27.0234C71.2641 27.1743 71.5772 27.3869 71.8379 27.66C72.0986 27.9328 72.3003 28.2577 72.4431 28.6349C72.5858 29.0113 72.6572 29.4256 72.6572 29.8764Z" fill="white"/>
<path d="M74.3532 26.8907C74.388 26.9089 74.4281 26.946 74.4725 27.0022L77.9604 31.5409C77.9523 31.4681 77.9465 31.3975 77.9437 31.3281C77.9408 31.2598 77.94 31.1935 77.94 31.1287V26.863H78.6543V32.885H78.2421C78.1781 32.885 78.1243 32.8741 78.0805 32.8516C78.037 32.8289 77.9946 32.7917 77.9523 32.7379L74.4688 28.2043C74.4739 28.2743 74.4782 28.3428 74.4811 28.4097C74.4842 28.4774 74.4857 28.5387 74.4857 28.5946V32.885H73.7713V26.863H74.1913C74.2642 26.863 74.3181 26.8725 74.3532 26.8907V26.8907Z" fill="white"/>
<path d="M83.8353 26.8634V27.5274H80.9445V29.5277H83.2848V30.1664H80.9445V32.2212H83.8353V32.8854H80.1246V26.8634H83.8353Z" fill="white"/>
<path d="M88.0925 27.8049C88.0669 27.8472 88.0406 27.8784 88.0124 27.8996C87.9847 27.9207 87.9482 27.9308 87.903 27.9308C87.8557 27.9308 87.8004 27.9068 87.737 27.8596C87.6745 27.8115 87.5944 27.759 87.4976 27.7023C87.4014 27.6447 87.2848 27.5914 87.1487 27.5442C87.0133 27.4969 86.8486 27.4728 86.655 27.4728C86.473 27.4728 86.312 27.4975 86.1722 27.5464C86.0317 27.5952 85.9153 27.662 85.8213 27.7458C85.7272 27.8303 85.6566 27.9287 85.6085 28.0423C85.5612 28.1558 85.5373 28.2782 85.5373 28.4101C85.5373 28.5781 85.5788 28.7172 85.6609 28.8278C85.7441 28.9387 85.8533 29.0332 85.9893 29.1119C86.125 29.1905 86.2794 29.2582 86.4511 29.3152C86.6236 29.3734 86.7999 29.4324 86.9811 29.4941C87.1617 29.5561 87.338 29.6252 87.5106 29.7024C87.6825 29.7796 87.8367 29.8764 87.973 29.9937C88.1084 30.1117 88.2175 30.2558 88.3007 30.4269C88.3829 30.598 88.4244 30.8077 88.4244 31.0577C88.4244 31.3204 88.3794 31.5679 88.2898 31.7989C88.2002 32.0305 88.0691 32.2313 87.8972 32.4024C87.7246 32.5729 87.5135 32.7075 87.2623 32.8052C87.0117 32.9034 86.7264 32.9529 86.4073 32.9529C86.0178 32.9529 85.6626 32.8817 85.3421 32.7403C85.0211 32.5991 84.7472 32.4076 84.5208 32.1665L84.7558 31.7799C84.7786 31.7494 84.8054 31.7238 84.8376 31.7021C84.8702 31.6817 84.9059 31.6707 84.9445 31.6707C85.0035 31.6707 85.0712 31.7021 85.1462 31.7655C85.2219 31.8286 85.3167 31.898 85.4302 31.9735C85.5437 32.0493 85.6808 32.1184 85.8424 32.1818C86.0034 32.2445 86.1999 32.2757 86.4321 32.2757C86.6259 32.2757 86.7985 32.2495 86.9491 32.1964C87.1007 32.1432 87.2288 32.0683 87.3337 31.9715C87.4392 31.8746 87.5192 31.7589 87.5754 31.6249C87.6315 31.4901 87.6598 31.3401 87.6598 31.1747C87.6598 30.9929 87.6183 30.8434 87.5354 30.7276C87.453 30.6112 87.3446 30.5136 87.2098 30.4358C87.0759 30.3571 86.9223 30.2901 86.7496 30.2362C86.5778 30.1809 86.4009 30.1247 86.2203 30.0679C86.0397 30.0106 85.8628 29.9435 85.6909 29.8686C85.5183 29.7928 85.3654 29.6946 85.2308 29.5736C85.096 29.4535 84.9874 29.3028 84.9053 29.1222C84.8221 28.9416 84.7806 28.718 84.7806 28.4522C84.7806 28.2387 84.8221 28.0336 84.9053 27.834C84.9874 27.6352 85.1076 27.4589 85.2642 27.3045C85.4215 27.151 85.6151 27.0271 85.8461 26.9347C86.0775 26.8422 86.3425 26.7964 86.6426 26.7964C86.9791 26.7964 87.2856 26.8494 87.563 26.9559C87.8404 27.0628 88.083 27.2164 88.2898 27.4183L88.0925 27.8049V27.8049Z" fill="white"/>
<path d="M90.4289 32.8852H89.6134V26.8632H90.4289V32.8852Z" fill="white"/>
<path d="M93.0511 30.6498H95.2989L94.3537 28.1995C94.2918 28.0486 94.2322 27.8594 94.1731 27.6321C94.1418 27.7473 94.112 27.8527 94.0827 27.9498C94.053 28.0466 94.0245 28.131 93.9962 28.2038L93.0511 30.6498V30.6498ZM96.997 32.8852H96.3664C96.2936 32.8852 96.2345 32.8671 96.1902 32.8305C96.145 32.7942 96.1115 32.7484 96.0888 32.6922L95.5259 31.2381H92.8238L92.261 32.6922C92.2414 32.7424 92.2077 32.787 92.1598 32.8262C92.1123 32.8656 92.0533 32.8852 91.9835 32.8852H91.353L93.7609 26.8632H94.5888L96.997 32.8852Z" fill="white"/>
<path d="M39.6316 11.2643V32.826H44.6996V16.6666C44.6996 15.46 44.056 11.8141 39.6316 11.2643V11.2643Z" fill="white"/>
<path d="M12.694 29.0739C13.3384 29.0739 13.8656 28.9924 14.2749 28.8285C14.6834 28.6654 15.0029 28.4534 15.2345 28.1936C15.4655 27.9337 15.6242 27.6402 15.7107 27.3132C15.7974 26.9863 15.8403 26.6542 15.8403 26.3171C15.8403 25.9326 15.7901 25.586 15.689 25.278C15.5885 24.9701 15.4151 24.7108 15.1691 24.4988C14.9243 24.2871 14.5989 24.1232 14.1948 24.008C13.7913 23.8922 13.2808 23.8348 12.6649 23.8348H9.25914V29.0739H12.694ZM9.25914 15.3763V20.5725H11.799C12.3379 20.5725 12.8242 20.5347 13.2569 20.4576C13.6901 20.3804 14.0577 20.2456 14.3608 20.0534C14.6644 19.8604 14.8952 19.5962 15.0539 19.2597C15.2126 18.9225 15.2921 18.4995 15.2921 17.9891C15.2921 17.4887 15.2295 17.073 15.1042 16.7409C14.979 16.4088 14.7868 16.1417 14.5267 15.9401C14.2675 15.7376 13.9376 15.5933 13.5386 15.5068C13.1388 15.4201 12.6649 15.3763 12.1173 15.3763H9.25914V15.3763ZM12.1173 11.7254C13.57 11.7254 14.8064 11.86 15.8265 12.1295C16.8459 12.3989 17.6784 12.7791 18.3234 13.2697C18.9678 13.7606 19.4368 14.3569 19.7303 15.0589C20.0238 15.7615 20.1708 16.5459 20.1708 17.4116C20.1708 17.8834 20.1031 18.3379 19.9683 18.7761C19.8337 19.2137 19.6217 19.6224 19.3334 20.0024C19.0444 20.3826 18.6745 20.7312 18.2223 21.0487C17.7694 21.3664 17.2261 21.6409 16.5912 21.8717C17.9768 22.2087 19.0015 22.752 19.6655 23.5027C20.3289 24.2534 20.6616 25.2256 20.6616 26.4182C20.6616 27.3132 20.4882 28.1455 20.1417 28.9152C19.7951 29.6849 19.2876 30.3563 18.619 30.9285C17.9498 31.5009 17.1248 31.9488 16.1433 32.2714C15.1625 32.5932 14.041 32.7548 12.7807 32.7548H4.38043V11.7254H12.1173V11.7254Z" fill="white"/>
<path d="M35.3253 15.9974C35.1811 16.2282 35.0298 16.4015 34.871 16.5165C34.7121 16.6323 34.5076 16.6899 34.2572 16.6899C34.0357 16.6899 33.7977 16.6205 33.5428 16.4808C33.2879 16.3411 32.9989 16.1852 32.6769 16.0118C32.3545 15.8386 31.9867 15.682 31.573 15.5429C31.1594 15.4031 30.6875 15.3332 30.1583 15.3332C29.2437 15.3332 28.5636 15.5284 28.1157 15.9179C27.6686 16.3074 27.4444 16.8348 27.4444 17.498C27.4444 17.9219 27.5798 18.2729 27.8486 18.5517C28.1179 18.8314 28.4717 19.0717 28.9101 19.2741C29.3477 19.4758 29.8481 19.6614 30.4109 19.8296C30.9738 19.9978 31.5483 20.1856 32.1353 20.3925C32.7229 20.5993 33.2982 20.8424 33.8603 21.1207C34.4231 21.4004 34.9241 21.7564 35.3617 22.1889C35.7993 22.6221 36.1533 23.1493 36.422 23.7697C36.6914 24.3902 36.8262 25.1386 36.8262 26.014C36.8262 26.986 36.6585 27.8955 36.3215 28.7417C35.9844 29.5886 35.4956 30.3276 34.8564 30.9575C34.2163 31.5881 33.4276 32.0833 32.4899 32.4445C31.5511 32.8049 30.4853 32.9855 29.2924 32.9855C28.6379 32.9855 27.9716 32.9178 27.2935 32.783C26.6151 32.6491 25.9583 32.4583 25.3231 32.2129C24.6882 31.9675 24.0919 31.6769 23.5334 31.3398C22.9748 31.0034 22.4891 30.6277 22.0755 30.2141L23.5187 27.9334C23.6345 27.7704 23.786 27.6327 23.9732 27.5227C24.1611 27.412 24.3656 27.3567 24.5871 27.3567C24.8754 27.3567 25.1667 27.4478 25.4602 27.6304C25.7535 27.8133 26.0856 28.0158 26.4563 28.2371C26.8268 28.4583 27.252 28.6602 27.7334 28.8429C28.2147 29.0258 28.7828 29.1174 29.4367 29.1174C30.3222 29.1174 31.0102 28.9223 31.5002 28.5326C31.991 28.1431 32.2364 27.5249 32.2364 26.678C32.2364 26.1872 32.1016 25.7882 31.8323 25.4803C31.5635 25.1723 31.2089 24.9174 30.7722 24.7149C30.3337 24.5132 29.8357 24.3349 29.278 24.1811C28.7194 24.0275 28.147 23.8564 27.5608 23.6686C26.9732 23.4808 26.4008 23.2498 25.8431 22.9761C25.2845 22.7016 24.7865 22.3412 24.3489 21.8933C23.9105 21.4462 23.5573 20.8876 23.2879 20.2193C23.0186 19.5501 22.8838 18.7251 22.8838 17.7434C22.8838 16.9549 23.0425 16.1852 23.36 15.4345C23.6777 14.6836 24.1443 14.0152 24.7603 13.4284C25.3764 12.8414 26.1314 12.3724 27.0264 12.0207C27.9212 11.6698 28.9458 11.4944 30.1007 11.4944C30.7451 11.4944 31.3728 11.5445 31.9844 11.6459C32.5948 11.747 33.175 11.8962 33.7234 12.0929C34.2716 12.2903 34.7843 12.5262 35.2605 12.8007C35.7367 13.0744 36.1627 13.3847 36.5378 13.7312L35.3253 15.9974V15.9974Z" fill="white"/>
<path d="M46.8685 13.956C46.479 12.8755 45.8535 11.8603 44.9885 10.9932C44.1226 10.1253 43.1075 9.49675 42.0263 9.10436C42.9343 8.40009 43.7061 7.49147 44.2632 6.4006C44.8217 5.30911 45.1057 4.14991 45.1441 3C46.0944 3.64524 47.1977 4.09892 48.4064 4.29191C49.6174 4.48553 50.808 4.3974 51.9133 4.07912C51.5936 5.18238 51.5026 6.37066 51.6927 7.58084C51.8834 8.79267 52.3348 9.89718 52.9792 10.8504C51.831 10.8869 50.6724 11.1678 49.5803 11.7227C48.4873 12.2777 47.5756 13.0488 46.8685 13.956Z" fill="#F8AF48"/>
</svg>
